#!OML:ASF H:\ManfredETheater\Project 1\Capture day 1\Session 1\subject.ASF
:FULLY-SPECIFIED
:DEGREES
158
root 1.77574 16.8159 -39.4558 -164.381 -5.49629 171.245
lowerback 10.4936 0.575653 -6.87115
upperback -2.44626 -0.440969 -1.95696
thorax -8.50857 0.0345282 1.86614
lowerneck -22.5686 -5.08625 -5.26898
upperneck 12.1464 -6.34295 5.94987
head 7.77492 -2.70163 1.99535
rclavicle -8.94531e-015 -7.95139e-016
rhumerus -60.0105 -0.771995 -87.7849
rradius 78.1876
rwrist -19.3134
rhand -24.95 9.96289
rfingers 7.12502
rthumb 1.55989 -20.0111
lclavicle -8.94531e-015 -7.95139e-016
lhumerus -41.8663 -10.1693 100.594
lradius 108.537
lwrist 11.3291
lhand -16.2665 -10.4972
lfingers 7.12502
lthumb 9.94301 19.248
rfemur -34.7631 -16.7183 10.0235
rtibia 110.164
rfoot 1.03257 -2.43941
rtoes -5.01032
lfemur -27.9856 -5.32049 -31.3295
ltibia 53.7438
lfoot -31.3635 -1.87553
ltoes 4.87228
159
root 1.78118 16.8365 -40.089 -164.212 -5.48086 170.781
lowerback 10.2066 0.190795 -7.23966
upperback -2.65118 -1.00233 -1.97305
thorax -8.51648 -0.219228 2.15097
lowerneck -22.79 -4.72765 -4.95869
upperneck 12.8387 -5.91093 5.62631
head 7.99774 -2.49832 1.89337
rclavicle 2.78299e-015 -2.82274e-014
rhumerus -62.3612 -0.148008 -88.0072
rradius 78.8418
rwrist -19.6513
rhand -24.3715 10.2847
rfingers 7.12502
rthumb 2.11859 -19.6845
lclavicle 2.78299e-015 -2.82274e-014
lhumerus -40.4231 -10.357 100.289
lradius 111.294
lwrist 11.978
lhand -16.0279 -10.1206
lfingers 7.12502
lthumb 10.1732 19.6134
rfemur -38.361 -17.3974 10.1056
rtibia 109.26
rfoot -0.572501 -1.63922
rtoes -7.27556
lfemur -25.0363 -5.68013 -31.6739
ltibia 52.4412
lfoot -30.9971 -1.61004
ltoes 1.32283
160
root 1.79026 16.8661 -40.7307 -164.076 -5.50744 170.4
lowerback 9.88383 -0.245473 -7.58225
upperback -2.83644 -1.61318 -1.91446
thorax -8.46818 -0.496754 2.50399
lowerneck -23.0317 -4.30834 -4.58349
upperneck 13.4852 -5.39305 5.19902
head 8.20299 -2.26384 1.75853
rclavicle 4.67144e-015 2.38542e-015
rhumerus -64.6781 0.626206 -88.2294
rradius 79.7989
rwrist -19.7416
rhand -23.6771 10.5863
rfingers 7.12502
rthumb 2.78918 -19.3752
lclavicle 4.67144e-015 2.38542e-015
lhumerus -39.1709 -10.4151 99.8652
lradius 114.315
lwrist 13.2301
lhand -15.8459 -9.67252
lfingers 7.12502
lthumb 10.3488 20.0528
rfemur -41.7181 -17.8244 10.4312
rtibia 107.742
rfoot -2.07804 -1.03281
rtoes -9.68435
lfemur -22.1174 -5.98004 -31.8999
ltibia 51.1008
lfoot -30.009 -1.6595
ltoes -2.5769
161
root 1.80298 16.9074 -41.3827 -163.985 -5.55993 170.096
lowerback 9.55249 -0.71337 -7.90648
upperback -3.0133 -2.25228 -1.79036
thorax -8.39135 -0.787073 2.91443
lowerneck -23.2643 -3.84519 -4.16173
upperneck 14.0854 -4.81075 4.68884
head 8.39015 -2.008 1.59773
rclavicle -1.7344e-014 2.06736e-014
rhumerus -66.9479 1.47089 -88.4075
rradius 80.9282
rwrist -19.6203
rhand -22.9591 10.846
rfingers 7.12502
rthumb 3.48257 -19.1053
lclavicle -1.7344e-014 2.06736e-014
lhumerus -38.1015 -10.3948 99.3145
lradius 117.473
lwrist 14.9849
lhand -15.7026 -9.19986
lfingers 7.12502
lthumb 10.4871 20.5186
rfemur -44.7419 -17.9936 10.9106
rtibia 105.607
rfoot -3.44916 -0.682372
rtoes -12.1325
lfemur -19.2259 -6.1836 -32.0021
ltibia 49.7091
lfoot -28.355 -2.10343
ltoes -6.58842
162
root 1.81997 16.9627 -42.0458 -163.951 -5.5856 169.873
lowerback 9.21399 -1.18139 -8.22745
upperback -3.16674 -2.8797 -1.61139
thorax -8.27282 -1.07176 3.37162
lowerneck -23.4888 -3.35818 -3.71808
upperneck 14.6294 -4.19015 4.13362
head 8.5605 -1.74091 1.42373
rclavicle -2.6339e-014 2.62396e-014
rhumerus -69.1176 2.31797 -88.5068
rradius 82.1209
rwrist -19.3915
rhand -22.2778 11.0572
rfingers 7.12502
rthumb 4.14053 -18.8823
lclavicle -2.6339e-014 2.62396e-014
lhumerus -37.1646 -10.3299 98.6143
lradius 120.651
lwrist 17.009
lhand -15.5045 -8.75903
lfingers 7.12502
lthumb 10.6781 20.9496
rfemur -47.3729 -17.8781 11.4776
rtibia 102.864
rfoot -4.65172 -0.641278
rtoes -14.4912
lfemur -16.359 -6.22139 -31.9666
ltibia 48.2256
lfoot -25.9549 -2.99769
ltoes -10.4003
163
root 1.84021 17.0328 -42.7208 -163.982 -5.56294 169.708
lowerback 8.87018 -1.6304 -8.54061
upperback -3.29841 -3.47333 -1.40587
thorax -8.1191 -1.34199 3.83896
lowerneck -23.6784 -2.87243 -3.28332
upperneck 15.1204 -3.566 3.57895
head 8.71464 -1.47607 1.25211
rclavicle 1.28713e-014 -1.15295e-014
rhumerus -71.1838 3.10497 -88.5094
rradius 83.3003
rwrist -19.1611
rhand -21.6639 11.2319
rfingers 7.12502
rthumb 4.73329 -18.6952
lclavicle 1.28713e-014 -1.15295e-014
lhumerus -36.3639 -10.2455 97.7577
lradius 123.749
lwrist 18.9811
lhand -15.2412 -8.38185
lfingers 7.12502
lthumb 10.9321 21.3136
rfemur -49.5432 -17.5125 12.0325
rtibia 99.5266
rfoot -5.67073 -0.904055
rtoes -16.5903
lfemur -13.497 -6.09208 -31.816
ltibia 46.5914
lfoot -22.6763 -4.31065
ltoes -13.6928
164
root 1.86273 17.1152 -43.4063 -164.086 -5.47026 169.602
lowerback 8.54568 -2.04108 -8.82275
upperback -3.41686 -4.01013 -1.19206
thorax -7.96017 -1.58717 4.28273
lowerneck -23.8336 -2.41618 -2.88748
upperneck 15.5881 -2.96275 3.06155
head 8.86455 -1.21273 1.09822
rclavicle 4.35835e-014 5.96354e-015
rhumerus -73.1553 3.78827 -88.4046
rradius 84.4174
rwrist -18.9914
rhand -21.1281 11.3477
rfingers 7.12502
rthumb 5.25063 -18.5672
lclavicle 4.35835e-014 5.96354e-015
lhumerus -35.704 -10.1509 96.7514
lradius 126.674
lwrist 20.6108
lhand -14.8842 -8.14771
lfingers 7.12502
lthumb 11.2764 21.5292
rfemur -51.2258 -16.9361 12.5321
rtibia 95.635
rfoot -6.49208 -1.45359
rtoes -18.3633
lfemur -10.6296 -5.82282 -31.5551
ltibia 44.7609
lfoot -18.2881 -5.93198
ltoes -16.0658
165
root 1.88752 17.2065 -44.1018 -164.273 -5.26749 169.572
lowerback 8.22869 -2.39207 -9.06348
upperback -3.52094 -4.46011 -0.977524
thorax -7.79568 -1.79353 4.68608
lowerneck -23.963 -1.97903 -2.56336
upperneck 16.0632 -2.38752 2.61209
head 9.02217 -0.972902 0.973808
rclavicle 7.95139e-016 2.3059e-014
rhumerus -75.0394 4.34583 -88.187
rradius 85.4458
rwrist -18.8888
rhand -20.684 11.4339
rfingers 7.12502
rthumb 5.67949 -18.47
lclavicle 7.95139e-016 2.3059e-014
lhumerus -35.1834 -10.0602 95.6123
lradius 129.371
lwrist 21.7268
lhand -14.5114 -8.08724
lfingers 7.12502
lthumb 11.636 21.5697
rfemur -52.4239 -16.1471 12.9715
rtibia 91.238
rfoot -7.13921 -2.25049
rtoes -19.723
lfemur -7.74152 -5.4333 -31.1854
ltibia 42.7131
lfoot -12.6562 -7.54612
ltoes -17.356
166
root 1.91299 17.3019 -44.8047 -164.537 -4.96948 169.623
lowerback 7.91831 -2.68629 -9.22202
upperback -3.6068 -4.8232 -0.771097
thorax -7.62747 -1.96313 5.01886
lowerneck -24.0679 -1.58518 -2.28808
upperneck 16.5425 -1.86108 2.21288
head 9.18511 -0.753829 0.868185
rclavicle -4.96962e-015 3.29983e-014
rhumerus -76.8298 4.77278 -87.8603
rradius 86.3853
rwrist -18.8412
rhand -20.3272 11.4866
rfingers 7.12502
rthumb 6.02389 -18.4078
lclavicle -4.96962e-015 3.29983e-014
lhumerus -34.7767 -9.96595 94.3553
lradius 131.806
lwrist 22.273
lhand -14.1267 -8.22339
lfingers 7.12502
lthumb 12.0069 21.4122
rfemur -53.1548 -15.2086 13.3466
rtibia 86.4039
rfoot -7.65162 -3.20802
rtoes -20.6617
lfemur -4.82784 -5.01474 -30.7308
ltibia 40.4745
lfoot -5.79988 -8.72392
ltoes -17.1806
